<?xml version="1.0" encoding="UTF-8"?>
<svg width="60" height="60" xmlns="http://www.w3.org/2000/svg">
	<clipPath id="circle">
		<circle cx="30" cy="30" r="23.5"/>
	</clipPath>
	<linearGradient id="sky">
		<stop offset="0" stop-color="#000" />
		<stop offset="0.5" stop-color="#00f" />
		<stop offset="1" stop-color="#88f" />
	</linearGradient>
	<linearGradient id="earth" x1="0" x2="0" y1="1" y2="0">
		<stop offset="0" stop-color="#f70" />
		<stop offset="0.9" stop-color="#fb0" stop-opacity="0.9" />
		<stop offset="1" stop-color="#000" stop-opacity="0" />
	</linearGradient>
	<g>
		<circle cx="30" cy="30" r="26" stroke-width="6" stroke="#080" fill="none" />
		<circle cx="30" cy="4" r="1.3" fill="#fff" />
		<circle cx="50.3276" cy="13.7893" r="1.3" fill="#fff" />
		<circle cx="55.3481" cy="35.7855" r="1.3" fill="#fff" />
		<circle cx="41.281" cy="53.4252" r="1.3" fill="#fff" />
		<circle cx="18.719" cy="53.4252" r="1.3" fill="#fff" />
		<circle cx="4.65187" cy="35.7855" r="1.3" fill="#fff" />
		<circle cx="9.67238" cy="13.7893" r="1.3" fill="#fff" />
		<!--
			30 + 26 * sin(n * 360°/7), 30 - 26 * cos(n * 360°/7)
		-->
		<rect x="5" width="50" y="0" height="60" stroke="none" fill="url(#sky)" clip-path="url(#circle)" />
		<rect x="0" width="60" y="20" height="40" stroke="none" fill="url(#earth)" clip-path="url(#circle)" />
		<path d="M 33,0 L 33,20 L 60,20 L 60,26 L 33,26 L 33,60 L 27,60 L 27,26 L 0,26 L 0,20 L 27,20 L 27,0 z" stroke="none" fill="#fff" fill-opacity="0.3" clip-path="url(#circle)" />
		<path d="M 23.1,8.96 C 15.29,10.28 18,21.2 24.79,18.68 C 21.39,17.24 20.61,12.88 23.1,8.96 z" stroke="none" fill="#ffb" />
		<circle cx="25" cy="13" r="1" stroke="none" fill="#ffb" />
		<circle cx="15" cy="18" r="0.5" stroke="none" fill="#ffb" />
		<circle cx="17" cy="14" r="0.5" stroke="none" fill="#ffb" />
		<circle cx="40" cy="15" r="4" stroke="none" fill="#fb6" />
		<image xlink:href="icon-source/icon-image-2.png" x="29" y="24" width="22.58" height="22.42" />
		<image xlink:href="icon-source/icon-image-1.png" x="10" y="28" width="24.79" height="26.29" clip-path="url(#circle)" />
	</g>
</svg>
