<?xml version="1.0" standalone="no"?>
<!DOCTYPE svg PUBLIC "-//W3C//DTD SVG 20010904//EN"
 "http://www.w3.org/TR/2001/REC-SVG-20010904/DTD/svg10.dtd">
<svg version="1.0" xmlns="http://www.w3.org/2000/svg"
 width="512.000000pt" height="512.000000pt" viewBox="0 0 512.000000 512.000000"
 preserveAspectRatio="xMidYMid meet">
<metadata>
Created by potrace 1.11, written by Peter Selinger 2001-2013
</metadata>
<g transform="translate(0.000000,512.000000) scale(0.100000,-0.100000)"
fill="#000000" stroke="none">
<path d="M2340 5024 c-355 -41 -619 -118 -905 -261 -441 -223 -855 -637 -1078
-1078 -121 -241 -196 -476 -244 -760 -26 -157 -26 -573 0 -730 92 -553 318
-998 701 -1381 383 -383 828 -609 1381 -701 157 -26 573 -26 730 0 553 92 998
318 1381 701 383 383 609 828 701 1381 14 86 18 165 18 365 0 200 -4 279 -18
365 -92 553 -318 998 -701 1381 -382 382 -825 607 -1376 700 -91 15 -506 28
-590 18z m303 -174 c40 -45 38 -101 -7 -146 -28 -28 -42 -34 -76 -34 -89 0
-143 106 -89 174 28 36 55 47 104 41 29 -3 48 -12 68 -35z m-683 -505 c0 -3
-16 -37 -36 -76 -66 -133 -92 -312 -63 -438 25 -111 95 -209 191 -271 l58 -38
-45 -11 c-72 -18 -187 -14 -249 10 -144 53 -246 217 -246 394 0 157 72 287
204 369 53 33 186 76 186 61z m1596 -199 c121 -56 194 -171 194 -306 0 -136
-72 -250 -195 -307 -52 -24 -72 -28 -145 -27 -103 1 -157 22 -229 89 -195 182
-109 505 154 576 56 15 158 4 221 -25z m-1377 -66 c31 -16 46 -65 31 -100 -23
-56 -92 -69 -135 -25 -50 49 -17 135 51 135 20 0 43 -4 53 -10z m-1286 -50
c30 -24 50 -78 42 -113 -4 -14 -20 -38 -36 -53 -38 -36 -104 -40 -139 -9 -83
73 -42 195 65 195 27 0 51 -7 68 -20z m3470 0 c81 -64 35 -195 -68 -195 -76 0
-128 70 -105 141 16 47 54 74 105 74 27 0 51 -7 68 -20z m-2892 -70 c25 -14
25 -56 -1 -70 -45 -24 -86 44 -42 69 21 13 20 13 43 1z m-153 -372 c2 -19 -3
-30 -17 -38 -28 -15 -61 3 -61 34 0 31 9 37 45 34 24 -2 31 -8 33 -30z m3097
-307 c3 -5 2 -12 -3 -15 -5 -3 -9 1 -9 9 0 17 3 19 12 6z m13 -61 c1 -2 8 -3
14 -4 20 -2 76 -204 97 -344 58 -403 -1 -810 -171 -1172 -57 -121 -87 -171
-87 -144 -1 49 -4 74 -11 74 -3 0 -7 6 -8 13 -2 21 -20 82 -21 72 -2 -15 -21
17 -21 35 0 13 1 13 10 0 8 -13 10 -13 10 2 0 32 -11 46 -33 41 -17 -4 -19 -3
-7 6 8 5 15 25 16 43 1 18 6 46 13 61 14 35 14 64 1 69 -7 2 -5 16 5 40 8 21
15 52 16 70 1 32 1 32 10 8 7 -20 8 -17 5 17 -2 23 -1 42 2 41 19 -2 25 3 13
11 -9 6 -11 18 -6 41 5 21 10 28 15 20 5 -7 12 8 20 39 6 28 16 51 22 51 5 0
2 7 -6 16 -20 19 -21 31 -2 15 12 -10 17 -8 27 11 12 22 11 22 -6 8 -17 -14
-17 -14 -7 6 6 12 9 24 6 27 -3 2 2 22 10 43 14 33 14 36 1 20 -8 -11 -15 -23
-15 -27 0 -4 -6 -9 -14 -12 -10 -4 -14 1 -13 18 1 13 -2 24 -6 24 -14 0 -35
34 -30 48 4 9 0 11 -13 6 -12 -4 -15 -3 -10 5 4 8 2 10 -8 6 -10 -4 -16 2 -18
18 -3 19 -6 16 -18 -19 -14 -45 -32 -50 -24 -6 4 23 3 25 -11 13 -13 -11 -15
-9 -15 14 0 14 -5 26 -11 26 -6 0 -9 -9 -6 -20 5 -18 -2 -24 -20 -17 -5 1 -8
8 -8 16 0 8 -6 16 -13 19 -6 2 -12 -2 -12 -10 0 -10 -3 -9 -10 2 -8 12 -10 8
-11 -15 -1 -16 -1 -37 0 -45 2 -12 0 -12 -7 -2 -5 8 -8 29 -6 48 3 38 -12 47
-19 12 -4 -23 -4 -23 -15 2 -10 24 -11 24 -12 -10 0 -26 -3 -31 -10 -20 -9 13
-10 13 -11 0 0 -8 -7 -1 -14 15 -14 30 -14 30 -16 5 -1 -14 -1 -29 0 -35 1 -5
-4 -3 -11 6 -11 13 -19 13 -53 4 -33 -10 -41 -17 -45 -41 l-6 -29 -8 30 c-7
29 -8 29 -22 10 -13 -17 -16 -18 -25 -5 -12 18 -6 -24 11 -83 6 -21 13 -61 15
-90 2 -29 10 -88 18 -132 8 -44 18 -111 22 -150 3 -38 10 -103 13 -143 4 -40
4 -76 -1 -81 -11 -11 -32 -47 -47 -81 -14 -31 -25 -159 -16 -193 3 -14 18 -29
35 -37 19 -7 28 -17 24 -26 -7 -19 -33 -18 -48 2 -11 15 -12 15 -12 0 0 -9 4
-16 9 -16 4 0 8 -13 8 -28 0 -19 11 -39 35 -62 37 -36 49 -34 15 2 -23 25 -21
44 5 40 22 -4 57 27 51 45 -7 16 6 17 22 1 9 -9 12 -9 12 2 0 7 3 10 7 7 3 -4
11 -3 17 2 6 5 53 12 104 15 52 3 109 11 127 18 43 15 52 7 30 -26 -14 -21
-21 -24 -31 -15 -11 9 -15 7 -20 -6 -5 -13 -9 -14 -15 -3 -7 10 -9 10 -9 -2 0
-13 -1 -13 -10 0 -8 12 -10 12 -10 1 0 -10 -3 -11 -14 -2 -11 9 -16 9 -21 0
-6 -8 -10 -8 -16 2 -6 10 -8 7 -7 -8 2 -15 8 -20 20 -18 14 3 17 -1 14 -20 -5
-27 21 -29 36 -2 5 10 14 14 20 11 6 -4 9 -3 5 2 -3 5 1 17 8 27 20 28 29 2 9
-28 -9 -13 -19 -23 -23 -20 -4 2 -8 -2 -8 -9 0 -16 -115 -158 -122 -151 -2 3
0 10 6 16 6 6 9 19 6 28 -4 12 -2 13 4 3 7 -9 12 -6 21 12 7 16 8 27 1 31 -5
4 -9 3 -8 -2 3 -20 -2 -34 -11 -28 -6 3 -13 -1 -16 -9 -3 -9 -11 -13 -17 -9
-6 4 -7 1 -2 -7 6 -10 4 -12 -8 -7 -12 4 -14 2 -10 -11 6 -15 5 -16 -12 -2
-11 9 -16 10 -11 3 4 -8 1 -13 -9 -13 -9 0 -14 4 -11 8 3 5 -1 9 -9 9 -11 0
-11 -5 -4 -19 14 -26 -7 -54 -27 -37 -8 6 -14 17 -14 23 0 6 5 3 11 -7 10 -17
29 -15 29 4 0 6 -5 7 -12 3 -7 -4 -8 -3 -4 4 5 8 -1 12 -14 12 -14 0 -19 4
-14 12 5 8 0 7 -10 -2 -10 -8 -24 -15 -30 -15 -6 -1 -23 -5 -39 -9 -15 -5 -51
-11 -80 -15 -34 -5 -51 -11 -49 -20 1 -7 -2 -10 -8 -6 -6 3 -8 10 -5 14 2 5
-7 13 -20 19 -19 9 -24 9 -22 -1 1 -7 -11 -13 -27 -15 -18 -2 -26 0 -21 7 8
14 -10 14 -36 1 -14 -8 -19 -7 -19 1 0 6 -7 9 -15 5 -8 -3 -15 0 -15 7 0 8 -4
6 -10 -3 -6 -10 -10 -11 -10 -2 0 6 -3 11 -7 10 -12 -4 -11 13 0 46 l10 29 13
-24 c7 -13 13 -18 14 -10 0 8 7 5 18 -9 l18 -22 1 22 c1 12 -1 20 -4 17 -3 -3
-15 5 -28 18 -12 14 -26 21 -30 17 -5 -4 -5 1 -2 10 4 12 2 15 -9 11 -8 -3
-14 -19 -14 -38 0 -18 -7 -38 -15 -45 -24 -20 -29 -4 -9 29 10 17 15 33 11 37
-8 8 -46 -36 -47 -53 0 -8 -14 -14 -32 -15 -135 -6 -148 -6 -141 5 4 7 -2 5
-12 -3 -10 -8 -16 -10 -13 -5 4 7 -12 11 -45 11 -38 0 -51 3 -49 12 1 8 -2 11
-7 8 -5 -4 -19 6 -30 20 -12 15 -21 21 -21 13 0 -11 -2 -11 -11 1 -8 13 -9 13
-7 -2 2 -9 -1 -17 -7 -17 -5 0 -9 9 -9 20 1 11 -1 17 -5 14 -3 -4 -6 -11 -6
-16 0 -5 -4 -9 -10 -9 -5 0 -10 4 -10 9 0 5 -3 12 -7 16 -3 4 -5 -1 -4 -12 2
-10 -2 -25 -8 -33 -10 -13 -9 -13 7 -1 14 11 17 11 17 0 0 -12 2 -12 9 0 6 9
11 10 15 2 4 -6 13 -8 19 -4 7 4 6 0 -2 -10 -13 -16 -11 -20 7 -14 4 1 6 5 5
8 -1 3 4 6 12 6 8 0 12 -4 9 -8 -2 -4 5 -6 16 -4 11 2 18 0 15 -5 -3 -5 4 -7
15 -5 11 2 18 1 16 -4 -3 -4 -22 -7 -43 -6 -21 1 -44 -3 -52 -9 -11 -8 -13 -8
-8 1 4 6 3 14 -3 18 -6 4 -8 11 -5 16 4 5 2 9 -3 9 -6 0 -12 -7 -16 -15 -3 -8
0 -15 6 -15 6 0 8 -3 5 -7 -4 -3 -18 4 -32 17 -18 17 -23 30 -20 49 5 26 5 26
-6 -1 -6 -16 -15 -28 -20 -28 -6 0 -7 -5 -4 -10 4 -6 10 -8 14 -5 5 2 17 -5
27 -18 l19 -22 -22 19 c-13 11 -23 16 -23 11 0 -4 -6 -2 -14 4 -11 10 -17 8
-26 -6 -8 -13 -10 -14 -7 -2 3 9 -3 23 -13 32 -16 13 -19 14 -24 1 -3 -8 -2
-12 3 -9 5 3 13 0 17 -6 4 -7 3 -9 -4 -5 -6 3 -13 2 -16 -3 -4 -5 2 -11 11
-14 10 -2 2 -4 -18 -3 -26 1 -35 5 -31 14 4 11 6 11 13 0 9 -13 10 -11 13 20
1 9 5 23 10 31 8 12 11 11 23 -4 7 -11 20 -20 28 -21 16 -2 41 33 31 44 -3 3
-6 0 -6 -7 0 -7 -5 -9 -10 -6 -6 4 -7 11 -4 17 5 7 2 8 -7 2 -8 -5 -21 -9 -30
-9 -9 0 -23 -6 -32 -14 -18 -15 -24 -2 -7 15 7 7 6 11 -5 11 -8 0 -13 -2 -10
-5 2 -3 0 -13 -6 -23 -5 -11 -6 -19 -2 -18 21 3 21 -3 3 -21 -19 -19 -20 -34
-21 -332 -1 -172 -1 -323 -1 -335 1 -20 -5 -22 -84 -28 -51 -5 -89 -4 -95 2
-17 17 -23 110 -9 142 19 46 6 78 -40 101 -22 11 -41 28 -41 38 -1 9 -3 50 -4
89 -1 56 -6 77 -21 94 -17 19 -19 38 -19 212 0 189 0 190 25 217 63 67 116 87
218 82 39 -2 46 -2 97 3 110 11 130 17 163 48 29 28 32 35 27 76 -3 25 -12 52
-19 61 -26 29 -43 84 -35 118 4 21 3 32 -5 32 -6 0 -5 4 3 9 8 5 11 16 8 26
-4 9 -3 14 2 10 10 -6 33 84 25 97 -3 4 0 8 6 8 6 0 10 8 9 18 -3 22 33 175
43 182 4 3 6 16 3 28 -2 12 1 22 6 22 6 0 6 7 -1 20 -8 15 -8 18 3 15 8 -4 13
3 14 16 2 17 -1 18 -13 9 -8 -7 -14 -9 -14 -5 0 8 22 88 26 93 1 2 23 -19 50
-46 27 -27 67 -59 90 -71 l41 -23 -23 -56 c-30 -77 -48 -242 -41 -372 9 -143
17 -201 30 -193 6 4 7 1 1 -8 -11 -18 -6 -64 16 -168 12 -59 15 -94 9 -115 -5
-17 -6 -44 -3 -60 5 -22 3 -27 -7 -20 -12 7 -12 5 -1 -9 8 -9 11 -20 8 -25 -3
-5 1 -9 9 -9 9 0 14 7 13 16 -2 10 6 17 22 19 14 2 30 8 36 13 6 5 20 7 32 4
22 -4 30 9 13 19 -5 3 -9 28 -8 54 0 27 -3 54 -7 60 -7 11 -20 128 -19 170 1
12 -2 22 -6 22 -3 0 -5 20 -4 45 0 25 -3 48 -8 51 -14 8 -11 26 4 18 10 -6 10
-4 0 7 -7 7 -13 27 -13 43 -1 26 -2 28 -11 13 -6 -10 -16 -14 -22 -10 -7 3 -5
-2 4 -13 21 -24 32 -71 19 -79 -5 -3 -9 -23 -9 -43 l2 -37 7 35 7 35 2 -32 c0
-17 4 -39 8 -49 4 -12 3 -15 -5 -10 -9 5 -11 -15 -6 -81 3 -48 6 -101 5 -116
-1 -16 3 -26 7 -23 5 3 7 -6 4 -20 -2 -14 -6 -23 -8 -21 -2 1 -12 49 -23 106
-30 151 -46 335 -46 514 0 86 -3 157 -7 157 -5 0 -8 5 -8 11 0 5 4 8 9 5 5 -3
11 5 13 19 3 14 0 25 -6 26 -7 0 -7 2 1 5 7 3 9 12 7 19 -3 8 5 39 19 69 14
30 22 57 19 61 -4 3 1 3 11 -1 10 -4 17 -1 17 6 0 7 8 19 18 26 16 13 16 14
-3 9 -11 -3 -6 1 11 9 39 19 47 49 29 106 l-14 45 4 -65 c3 -36 2 -58 -2 -49
-7 13 -13 10 -38 -22 -16 -21 -44 -45 -61 -55 -31 -17 -32 -17 -62 8 -17 14
-28 29 -24 33 4 5 2 5 -4 2 -11 -6 -44 26 -44 44 0 5 -4 8 -8 5 -5 -3 -15 4
-22 15 -17 23 -30 24 -56 4 -18 -13 -18 -14 5 -8 17 4 22 2 19 -8 -3 -8 -18
-14 -33 -14 -25 0 -30 5 -36 33 -7 37 -11 43 -31 46 -7 1 -18 4 -23 8 -6 4
-12 -2 -12 -13 -1 -12 3 -17 9 -13 7 4 8 2 4 -5 -10 -15 -29 -3 -22 15 3 8 -1
14 -9 14 -7 0 -17 5 -21 11 -4 7 0 9 12 5 11 -3 26 -1 34 4 16 11 13 12 -42
15 -35 2 -38 0 -39 -24 -1 -19 -4 -14 -13 19 -9 34 -14 41 -19 27 -4 -10 -7
-32 -7 -48 0 -16 -5 -29 -11 -29 -6 0 -8 9 -4 22 6 17 4 20 -10 14 -14 -5 -16
-2 -12 14 3 11 1 20 -4 20 -5 0 -9 8 -10 18 0 13 -3 12 -11 -5 -6 -13 -15 -23
-20 -23 -5 0 -6 5 -3 10 3 6 1 10 -4 10 -6 0 -11 -8 -11 -17 -1 -17 -1 -17
-14 0 -13 16 -15 15 -24 -20 -10 -37 -10 -37 -11 -8 l-2 30 -15 -27 c-17 -33
-24 -36 -17 -8 7 26 -11 26 -39 -2 -21 -21 -22 -21 -28 -2 -7 18 -7 18 -14 -3
-4 -13 -13 -22 -19 -20 -7 1 -13 -7 -13 -18 -1 -11 -3 -24 -4 -30 -1 -5 -2
-13 -1 -17 0 -5 -4 -8 -9 -8 -6 0 -8 -10 -5 -22 9 -45 17 -94 22 -138 3 -25 9
-49 13 -55 4 -5 7 -29 6 -53 0 -23 1 -42 4 -42 3 0 6 -28 7 -63 3 -69 1 -68
-47 28 -24 48 -27 50 -75 57 -27 3 -83 7 -123 7 -44 1 -85 7 -102 16 -29 15
-30 15 -53 -22 -13 -21 -32 -53 -41 -70 -18 -37 -31 -40 -56 -18 -21 19 -44
11 -58 -20 -6 -13 -19 -26 -29 -29 -19 -6 -50 -53 -67 -101 -7 -18 -21 -32
-36 -36 l-25 -7 26 -1 c21 -1 29 7 44 39 10 22 22 37 26 34 14 -8 11 -31 -7
-48 -17 -17 -17 -17 41 -20 17 -1 40 -6 53 -10 15 -5 31 -2 47 8 14 9 25 12
25 6 0 -5 9 -10 19 -10 11 0 22 -4 26 -9 3 -6 -6 -8 -21 -5 -15 3 -30 0 -34
-6 -5 -9 -18 -9 -45 -1 -21 6 -41 8 -45 6 -4 -3 -51 -1 -105 4 -95 9 -130 7
-120 -9 3 -4 -9 -7 -26 -6 -40 2 -71 38 -60 69 5 12 5 32 0 45 -7 19 -4 28 19
48 15 13 39 27 55 30 35 8 36 10 28 64 -7 44 11 109 32 119 5 2 17 17 27 33
21 34 14 63 -26 108 -27 31 -44 64 -44 85 0 36 -80 72 -104 48 -4 -5 -50 -8
-101 -8 -87 -1 -96 -3 -115 -25 -12 -14 -25 -30 -28 -36 -4 -6 -31 -26 -60
-44 -60 -37 -79 -67 -86 -136 -3 -27 -5 -49 -6 -49 -5 0 -3 -118 2 -122 11 -6
10 -63 -1 -63 -4 0 -20 -17 -34 -38 -15 -20 -42 -46 -61 -56 -40 -21 -108
-120 -138 -200 -11 -28 -26 -64 -33 -81 -40 -89 -54 -191 -32 -234 10 -19 13
-41 8 -57 -6 -24 -9 -22 -63 53 -88 124 -127 188 -189 317 -144 299 -208 606
-196 936 8 189 47 441 76 488 6 10 167 14 812 17 442 3 814 7 826 9 13 3 25 0
29 -6 4 -6 10 -5 15 3 7 11 9 11 9 1 0 -8 5 -10 12 -6 15 10 58 12 52 3 -5 -8
23 -6 31 3 3 3 21 2 39 -2 19 -4 40 -4 47 1 7 4 20 4 29 -1 9 -5 22 -5 31 1
19 12 32 11 23 -2 -5 -8 -1 -8 14 0 27 14 35 14 26 -1 -6 -10 -5 -10 7 -2 8 7
60 13 129 14 167 2 280 9 292 16 7 4 8 2 4 -4 -5 -9 -1 -10 16 -3 13 4 43 6
67 4 29 -2 47 1 53 9 6 10 8 10 8 0 0 -8 5 -10 13 -5 16 10 97 11 91 1 -3 -4
0 -8 5 -8 6 0 11 5 11 11 0 8 6 7 17 -2 11 -10 14 -10 9 -1 -4 6 -3 12 1 12 5
0 15 -6 22 -12 11 -10 13 -10 7 0 -4 6 -2 12 3 12 6 0 11 -6 11 -12 0 -8 3 -9
8 -3 4 6 21 11 37 12 17 0 45 3 62 6 18 2 30 1 28 -3 -6 -10 15 -7 33 3 7 5
12 3 12 -5 0 -8 3 -9 8 -3 9 13 42 13 61 1 9 -6 12 -5 7 2 -4 6 1 11 11 10 18
-1 282 8 512 18 69 2 127 7 130 9 2 3 10 0 17 -6 8 -6 14 -6 18 0 4 5 18 8 32
5 15 -3 23 -1 20 5 -5 7 22 8 32 1z m-178 -721 c0 -5 -5 -7 -12 -3 -8 5 -9 2
-5 -10 4 -10 3 -15 -3 -11 -15 10 -12 35 5 35 8 0 15 -5 15 -11z m-1250 -34
c0 -8 -3 -14 -7 -14 -21 3 -24 -3 -12 -18 7 -10 9 -15 5 -11 -5 4 -14 4 -20
-1 -13 -11 -15 27 -2 47 10 17 36 15 36 -3z m-84 -40 c-3 -8 -1 -15 4 -15 6 0
10 -5 10 -11 0 -8 -4 -8 -14 1 -13 10 -12 40 1 40 3 0 3 -7 -1 -15z m44 -47
c0 -18 -2 -20 -9 -8 -6 8 -7 18 -5 22 9 14 14 9 14 -14z m72 -10 c-8 -8 -9 -4
-5 13 4 13 8 18 11 10 2 -7 -1 -18 -6 -23z m1155 -20 c-3 -7 -5 -2 -5 12 0 14
2 19 5 13 2 -7 2 -19 0 -25z m-1237 -23 c0 -8 -4 -15 -10 -15 -5 0 -7 7 -4 15
4 8 8 15 10 15 2 0 4 -7 4 -15z m1140 -1 c0 -8 -19 -13 -24 -6 -3 5 1 9 9 9 8
0 15 -2 15 -3z m73 -19 c4 -8 3 -16 -1 -19 -4 -3 -9 4 -9 15 -2 23 3 25 10 4z
m-1100 -24 c3 -11 -1 -22 -8 -24 -8 -4 -10 3 -7 19 5 29 8 30 15 5z m1231 3
c5 -14 4 -15 -9 -4 -17 14 -19 20 -6 20 5 0 12 -7 15 -16z m-2529 -23 c-3 -5
-1 -12 5 -16 5 -3 10 -9 10 -14 0 -8 -111 -33 -118 -26 -2 2 8 15 23 29 23 21
37 28 78 35 5 0 6 -3 2 -8z m2252 -53 c-3 -7 -5 -2 -5 12 0 14 2 19 5 13 2 -7
2 -19 0 -25z m-2341 -36 c4 -31 18 -61 27 -55 6 3 7 1 3 -5 -4 -7 -15 -12 -24
-12 -15 -1 -14 -3 3 -17 20 -15 20 -15 -3 -10 -19 4 -21 3 -11 -9 6 -8 9 -15
5 -15 -3 -1 -9 -2 -13 -3 -5 -1 -18 -7 -30 -14 -18 -10 -24 -9 -37 4 -9 8 -16
19 -16 23 0 12 26 32 32 25 3 -3 9 -1 12 5 4 5 1 13 -5 17 -8 5 -9 3 -4 -6 5
-9 4 -11 -3 -6 -9 5 -9 13 0 29 7 12 11 28 9 36 -1 7 2 10 8 6 6 -3 11 -1 11
5 0 6 5 8 10 5 6 -3 10 -1 10 6 0 12 14 4 16 -9z m-1231 -8 c66 -31 83 -125
31 -173 -73 -69 -186 -26 -186 71 0 50 13 74 53 98 39 24 59 25 102 4z m4325
1 c41 -21 60 -53 60 -101 0 -99 -112 -143 -186 -73 -51 48 -35 141 29 173 40
20 61 20 97 1z m-2994 -63 c-3 -2 -1 -13 4 -23 13 -24 -1 -30 -20 -9 -24 26
-24 49 0 43 12 -3 19 -8 16 -11z m1138 -38 c3 -8 2 -12 -4 -9 -6 3 -10 10 -10
16 0 14 7 11 14 -7z m-1385 -70 c-7 -8 -7 -14 -1 -14 5 0 12 -11 14 -25 4 -20
2 -23 -12 -15 -25 13 -31 36 -15 50 8 7 12 17 8 23 -3 6 -1 7 6 3 9 -6 9 -11
0 -22z m797 -28 c-18 -25 -48 -69 -65 -99 -30 -52 -33 -54 -56 -43 -27 12 -33
26 -12 26 12 0 36 30 49 62 6 16 3 17 -30 12 -44 -7 -55 -14 -22 -14 13 0 20
-3 16 -7 -8 -8 -13 -9 -43 -12 -16 -1 -16 -3 -3 -11 12 -8 9 -10 -12 -10 -16
0 -28 5 -28 11 0 5 -5 7 -12 3 -7 -4 -8 -3 -4 5 4 6 11 9 16 6 10 -6 32 29 24
38 -3 3 0 14 7 24 10 12 30 19 67 21 41 3 104 17 139 31 2 1 -12 -19 -31 -43z
m-286 -11 c0 -15 -38 -41 -47 -32 -5 5 33 47 42 47 3 0 5 -7 5 -15z m51 -42
c13 -16 12 -17 -3 -4 -10 7 -18 15 -18 17 0 8 8 3 21 -13z m124 -33 c-3 -5
-12 -10 -18 -10 -7 0 -6 4 3 10 19 12 23 12 15 0z m-155 -10 c8 -5 11 -10 5
-10 -5 0 -17 5 -25 10 -8 5 -10 10 -5 10 6 0 17 -5 25 -10z m-223 -36 c-3 -3
-12 -4 -19 -1 -8 3 -5 6 6 6 11 1 17 -2 13 -5z m40 -10 c-3 -3 -12 -4 -19 -1
-8 3 -5 6 6 6 11 1 17 -2 13 -5z m-7 -24 c0 -3 -12 -29 -27 -57 -25 -49 -28
-51 -44 -37 -10 9 -25 36 -33 61 l-15 44 59 -3 c33 -1 60 -5 60 -8z m126 -2
c4 -6 3 -8 -4 -4 -6 3 -13 2 -17 -4 -3 -6 1 -13 9 -16 9 -3 16 -11 16 -17 0
-7 -4 -7 -12 1 -17 17 -31 15 -24 -3 3 -8 0 -14 -7 -12 -7 1 -12 -9 -12 -23 0
-15 5 -24 13 -22 6 1 12 -4 12 -10 0 -7 11 10 24 38 22 48 57 84 81 84 5 0 -5
-10 -22 -21 -18 -12 -33 -25 -33 -30 0 -16 24 -9 49 15 15 13 39 26 54 30 36
9 28 -7 -13 -24 -16 -7 -28 -16 -25 -20 3 -4 -4 -10 -15 -13 -11 -3 -20 -10
-20 -16 0 -14 16 -14 41 -1 28 16 24 -6 -5 -26 -14 -8 -23 -21 -20 -28 2 -6
-2 -20 -9 -31 -14 -18 -16 -18 -51 -1 -25 12 -47 15 -68 11 l-31 -7 6 37 c3
20 16 57 27 81 21 43 42 55 56 32z m187 -65 c-27 -47 -28 -47 -31 -20 -3 21 4
35 24 52 16 13 30 22 32 20 2 -2 -9 -25 -25 -52z m1862 -33 c3 -6 -1 -7 -9 -4
-18 7 -21 14 -7 14 6 0 13 -4 16 -10z m-1930 -14 c-11 -8 -26 -11 -35 -8 -11
5 -9 8 10 13 40 11 45 10 25 -5z m5 -62 c-30 -48 -37 -36 -9 18 12 23 24 37
26 31 3 -7 -5 -29 -17 -49z m1917 21 c0 -8 -4 -12 -9 -9 -5 3 -6 10 -3 15 9
13 12 11 12 -6z m13 -41 c0 -8 -19 -13 -24 -6 -3 5 1 9 9 9 8 0 15 -2 15 -3z
m-2119 -19 c-42 -19 -52 -19 -27 0 11 8 29 15 40 15 16 -1 12 -5 -13 -15z m23
-33 c3 -5 -1 -9 -9 -9 -8 0 -15 4 -15 9 0 4 4 8 9 8 6 0 12 -4 15 -8z m-34
-12 c0 -5 -5 -10 -11 -10 -5 0 -7 5 -4 10 3 6 8 10 11 10 2 0 4 -4 4 -10z
m-184 -12 c4 -7 3 -8 -5 -4 -6 4 -17 3 -24 -2 -19 -16 -87 -52 -87 -47 0 9 83
65 96 65 7 0 16 -5 20 -12z m111 -14 c-3 -3 -12 -4 -19 -1 -8 3 -5 6 6 6 11 1
17 -2 13 -5z m-87 -20 c0 -15 -15 -32 -24 -27 -6 3 -6 1 2 -8 16 -18 15 -36
-3 -43 -12 -4 -15 3 -15 37 0 36 3 43 20 43 11 0 20 -1 20 -2z m390 -16 c0 -5
5 -8 10 -8 6 0 28 -12 50 -26 34 -22 37 -28 27 -44 -9 -15 -8 -23 6 -38 18
-20 24 -92 8 -92 -6 0 -8 -9 -6 -20 2 -12 0 -18 -6 -15 -5 4 -7 10 -4 15 3 4
-3 14 -12 21 -14 12 -15 11 -9 -8 7 -23 -8 -41 -19 -23 -5 8 -11 7 -21 -1 -11
-9 -16 -6 -25 15 -7 14 -16 23 -21 20 -5 -3 -3 -13 4 -22 12 -15 11 -16 -4 -3
-18 13 -25 4 -10 -15 4 -5 -1 0 -12 11 -10 11 -23 19 -28 17 -5 -1 -7 1 -5 5
2 5 1 31 -2 59 -6 41 -4 56 10 73 12 15 16 32 12 54 -5 30 -3 32 26 32 17 0
31 -3 31 -7z m1757 -5 c-4 -3 -2 -12 3 -18 14 -17 -14 -40 -37 -30 -17 8 -17
8 0 12 13 3 17 11 14 24 -3 13 0 19 11 19 8 0 12 -3 9 -7z m255 -38 c17 3 17
2 0 -20 -18 -25 -27 -24 -27 3 0 9 -6 16 -13 14 -8 -1 -11 2 -7 8 4 7 11 8 18
2 7 -5 20 -8 29 -7z m-1225 -142 c5 -14 -25 -12 -31 3 -3 7 2 11 12 10 9 -2
17 -7 19 -13z m159 -15 c15 -19 16 -20 2 -9 -10 7 -18 10 -18 7 0 -4 -5 -4
-10 -1 -6 4 -8 11 -5 16 8 12 9 12 31 -13z m952 -28 c-7 -10 -14 -17 -17 -15
-4 4 18 35 25 35 2 0 -1 -9 -8 -20z m-141 -16 c-3 -4 -2 -16 4 -28 10 -20 9
-20 -5 -2 -14 17 -13 36 1 36 4 0 3 -3 0 -6z m-715 -18 c-4 -6 -7 -14 -7 -18
0 -19 -11 -14 -11 6 0 12 6 23 13 23 6 0 9 -5 5 -11z m687 0 c8 -10 8 -16 -2
-24 -10 -9 -13 -6 -13 13 0 29 0 29 15 11z m-32 -23 c0 -7 -3 -11 -5 -8 -3 3
-12 -1 -21 -8 -14 -10 -14 -10 -4 4 7 9 11 18 8 21 -3 2 1 5 8 5 8 0 14 -6 14
-14z m162 -9 c-14 -13 -16 -13 -16 0 0 8 4 13 9 10 4 -3 8 0 8 7 0 7 3 9 7 5
4 -3 0 -13 -8 -22z m-259 11 c0 -2 -6 -8 -13 -14 -10 -8 -14 -7 -14 2 0 8 6
14 14 14 7 0 13 -1 13 -2z m60 -1 c0 -8 -19 -13 -24 -6 -3 5 1 9 9 9 8 0 15
-2 15 -3z m-1600 -50 c0 -8 -19 -13 -24 -6 -3 5 1 9 9 9 8 0 15 -2 15 -3z m58
-139 c4 18 18 20 28 3 4 -6 3 -8 -3 -5 -6 4 -13 0 -17 -8 -8 -21 -30 -19 -51
5 -19 21 -19 21 11 5 26 -13 29 -13 32 0z m-610 -351 c26 -18 52 -65 52 -94 0
-34 -28 -78 -60 -95 -49 -25 -88 -19 -126 19 -28 28 -34 41 -34 78 1 66 42
107 110 108 20 0 46 -7 58 -16z m1915 5 c38 -19 57 -51 57 -97 0 -37 -6 -50
-34 -78 -38 -38 -77 -44 -126 -19 -32 17 -60 61 -60 95 0 29 26 76 52 94 26
19 80 21 111 5z"/>
<path d="M3900 3034 c-10 -11 -9 -14 6 -15 11 0 14 -3 6 -6 -7 -3 -19 0 -26 6
-10 9 -19 4 -38 -21 -37 -50 -80 -133 -128 -246 -24 -56 -48 -101 -54 -99 -12
4 -9 38 6 76 14 34 19 128 8 156 -23 59 -108 83 -184 51 -42 -18 -57 -44 -62
-108 -3 -45 -1 -48 17 -43 17 6 19 3 14 -24 -4 -26 -2 -31 15 -31 11 0 20 5
20 10 0 6 -5 10 -11 10 -7 0 -9 11 -5 30 3 18 2 29 -4 25 -5 -3 -13 2 -18 12
-30 59 47 115 111 82 31 -16 57 -45 49 -55 -4 -4 2 -4 12 0 16 5 17 4 7 -8 -8
-10 -10 -27 -6 -47 5 -22 4 -29 -4 -25 -7 5 -11 -2 -11 -16 0 -18 2 -20 10 -8
6 9 10 10 10 3 0 -7 -10 -21 -22 -33 -12 -11 -17 -20 -11 -20 5 0 10 -12 9
-27 -1 -18 6 -31 20 -38 15 -7 18 -15 13 -25 -14 -24 -99 -210 -99 -215 0 -3
-7 -22 -17 -43 -24 -55 -41 -102 -36 -102 2 0 18 29 34 65 17 36 35 63 40 59
5 -3 7 1 4 8 -6 17 12 45 22 34 4 -5 4 -10 -2 -12 -6 -2 -8 -27 -6 -55 2 -40
-1 -54 -13 -61 -21 -12 -20 -21 5 -36 12 -8 19 -9 15 -4 -3 5 6 19 19 30 14
12 25 19 25 14 0 -4 7 2 15 12 8 11 15 15 15 8 0 -6 7 -9 15 -6 13 5 11 10 -9
29 -14 13 -23 25 -20 28 3 3 6 34 7 70 2 58 6 69 31 96 17 17 26 31 21 31 -5
0 -4 5 2 11 6 6 9 17 6 24 -2 8 7 21 21 30 23 16 39 44 17 30 -5 -3 -13 0 -17
6 -4 7 -3 9 3 6 6 -4 14 0 17 9 3 8 10 12 16 9 5 -3 10 3 10 14 0 11 5 23 10
26 6 3 10 15 10 26 0 12 10 23 25 29 29 11 34 20 8 13 -10 -2 -34 -18 -53 -34
-21 -19 -26 -26 -12 -19 37 18 25 -6 -18 -34 -33 -22 -39 -30 -31 -45 8 -14 3
-25 -24 -51 -39 -37 -48 -64 -12 -34 l22 19 -19 -22 c-10 -12 -23 -21 -30 -20
-6 1 -10 -5 -8 -13 3 -11 0 -12 -8 -4 -8 8 -5 22 8 52 10 23 22 39 26 35 4 -4
4 1 0 11 -5 13 -2 17 12 14 14 -2 18 4 19 35 2 31 9 44 38 68 21 17 37 37 37
45 0 8 -5 12 -11 9 -6 -4 -8 -9 -5 -12 4 -5 -30 -43 -38 -43 -11 0 24 53 45
68 12 8 19 11 16 5 -4 -7 2 -10 17 -9 13 0 22 4 20 8 -2 4 0 9 6 13 5 3 10 1
10 -5 0 -6 5 -8 11 -4 8 4 7 9 -2 15 -8 4 -19 3 -26 -3 -7 -6 -13 -7 -13 -3 0
10 32 34 45 35 6 0 3 -5 -5 -11 -12 -9 -12 -10 3 -5 10 3 25 6 33 6 8 0 14 5
14 10 0 6 -8 10 -17 10 -15 0 -16 2 -3 10 13 8 12 10 -3 10 -11 0 -15 4 -11
12 4 7 3 8 -5 4 -6 -4 -9 -11 -6 -16 3 -5 0 -12 -6 -16 -8 -5 -9 -3 -4 6 6 10
2 12 -16 7 l-24 -6 25 19 c14 11 33 20 43 20 12 0 16 4 11 13 -6 9 -5 9 7 0 9
-8 20 -9 29 -3 13 8 12 10 -2 10 -10 0 -27 9 -38 20 -21 21 -19 40 3 40 7 0 6
-4 -3 -10 -11 -6 -4 -9 22 -7 34 2 68 17 38 17 -9 0 -10 3 -1 13 8 11 5 16
-13 25 -19 9 -27 8 -36 -4z m-26 -95 c-3 -5 -9 -7 -14 -4 -4 3 -10 -2 -14 -10
-3 -8 -10 -15 -16 -15 -5 0 0 11 12 25 19 22 46 26 32 4z m-249 -29 c13 -6 15
-9 5 -9 -8 0 -22 4 -30 9 -18 12 -2 12 25 0z m172 -72 c-3 -7 -5 -2 -5 12 0
14 2 19 5 13 2 -7 2 -19 0 -25z m43 26 c0 -8 -19 -13 -24 -6 -3 5 1 9 9 9 8 0
15 -2 15 -3z m-166 -356 c-58 -65 -64 -71 -64 -58 0 6 6 13 14 16 8 3 17 12
20 21 4 10 2 13 -8 10 -10 -4 -13 -1 -9 9 6 17 23 19 23 2 0 -9 3 -8 9 2 6 8
7 18 5 22 -3 4 1 5 9 2 8 -3 18 -1 22 5 3 6 9 11 12 11 3 0 -12 -19 -33 -42z"/>
<path d="M3901 2971 c-21 -13 24 -25 46 -12 10 6 13 11 6 11 -6 0 -17 2 -25 5
-7 3 -19 1 -27 -4z"/>
<path d="M3530 2790 c0 -5 7 -7 15 -4 8 4 15 8 15 10 0 2 -7 4 -15 4 -8 0 -15
-4 -15 -10z"/>
<path d="M3430 2751 c0 -11 4 -22 9 -25 4 -3 6 6 3 19 -5 30 -12 33 -12 6z"/>
<path d="M3457 2714 c-4 -4 -1 -14 6 -22 9 -13 9 -14 0 -8 -9 5 -13 0 -13 -16
0 -13 -11 -35 -25 -50 -30 -33 -32 -47 -5 -45 11 1 20 7 20 13 0 7 12 14 28
16 15 2 27 8 27 15 0 6 4 15 9 20 5 5 6 3 2 -4 -4 -7 -2 -13 3 -13 6 0 11 9
11 20 0 11 -3 19 -7 19 -24 -4 -32 4 -30 28 2 25 -12 40 -26 27z"/>
<path d="M3735 2710 c-3 -5 -1 -10 4 -10 6 0 11 5 11 10 0 6 -2 10 -4 10 -3 0
-8 -4 -11 -10z"/>
<path d="M3040 2580 c0 -16 3 -30 8 -30 4 0 7 14 7 30 0 17 -3 30 -7 30 -5 0
-8 -13 -8 -30z"/>
<path d="M3750 2600 c-9 -6 -10 -10 -3 -10 6 0 15 5 18 10 8 12 4 12 -15 0z"/>
<path d="M2939 2561 c12 -8 51 -4 51 5 0 2 -15 4 -32 4 -23 0 -29 -3 -19 -9z"/>
<path d="M3008 2563 c7 -3 16 -2 19 1 4 3 -2 6 -13 5 -11 0 -14 -3 -6 -6z"/>
<path d="M3385 2550 c3 -5 8 -10 11 -10 2 0 4 5 4 10 0 6 -5 10 -11 10 -5 0
-7 -4 -4 -10z"/>
<path d="M3089 2533 c12 -24 31 -39 31 -25 0 5 -10 17 -21 28 -22 19 -22 19
-10 -3z"/>
<path d="M3671 2440 c0 -14 6 -36 14 -50 18 -32 19 -16 0 35 -11 32 -14 35
-14 15z"/>
<path d="M3705 2361 c-3 -5 -1 -12 5 -16 5 -3 10 1 10 9 0 18 -6 21 -15 7z"/>
<path d="M3530 2250 c0 -5 5 -10 11 -10 5 0 7 5 4 10 -3 6 -8 10 -11 10 -2 0
-4 -4 -4 -10z"/>
<path d="M3480 2210 c0 -5 9 -14 19 -20 30 -15 33 -12 11 10 -22 22 -30 25
-30 10z"/>
<path d="M3658 2210 c-16 -5 -28 -6 -28 -3 0 3 -6 0 -13 -6 -8 -6 -16 -9 -19
-6 -3 3 -11 -2 -19 -11 -11 -14 -10 -15 5 -12 14 2 24 -13 46 -73 16 -43 26
-80 22 -85 -4 -4 -2 -4 5 0 8 4 16 -5 22 -26 9 -31 9 -31 6 12 -2 25 -5 52 -8
60 -12 34 -17 71 -10 67 4 -3 9 6 9 19 1 13 -2 22 -6 19 -5 -3 -8 3 -7 14 0
11 4 18 8 15 4 -2 12 3 19 11 14 17 8 17 -32 5z"/>
<path d="M3446 2114 c-8 -22 -7 -44 2 -44 4 0 9 14 10 30 3 33 -2 39 -12 14z"/>
<path d="M3321 1954 c0 -11 3 -14 6 -6 3 7 2 16 -1 19 -3 4 -6 -2 -5 -13z"/>
<path d="M3300 1746 c0 -14 4 -27 8 -30 5 -3 6 8 4 25 -5 35 -12 38 -12 5z"/>
<path d="M3391 1554 c0 -11 3 -14 6 -6 3 7 2 16 -1 19 -3 4 -6 -2 -5 -13z"/>
<path d="M2941 1484 c0 -11 3 -14 6 -6 3 7 2 16 -1 19 -3 4 -6 -2 -5 -13z"/>
<path d="M2981 1484 c0 -11 3 -14 6 -6 3 7 2 16 -1 19 -3 4 -6 -2 -5 -13z"/>
<path d="M3002 1480 c0 -14 2 -19 5 -12 2 6 2 18 0 25 -3 6 -5 1 -5 -13z"/>
<path d="M2876 1473 c-6 -14 -5 -15 5 -6 7 7 10 15 7 18 -3 3 -9 -2 -12 -12z"/>
<path d="M3440 1461 c0 -6 4 -13 10 -16 6 -3 7 1 4 9 -7 18 -14 21 -14 7z"/>
<path d="M3457 1419 c6 -6 9 -18 6 -25 -3 -8 -1 -14 4 -14 5 0 9 -9 9 -20 0
-17 -2 -18 -16 -5 -14 13 -18 12 -34 -6 -20 -24 -15 -35 11 -24 10 5 24 9 32
9 8 1 16 10 17 21 5 25 -15 75 -29 75 -8 0 -8 -3 0 -11z"/>
<path d="M2874 1395 c-4 -8 -9 -13 -13 -10 -17 10 -6 -26 12 -42 11 -10 17
-12 13 -5 -6 10 3 12 38 8 26 -2 46 0 46 6 0 5 -4 7 -9 3 -5 -3 -12 -1 -15 4
-3 5 -19 7 -36 6 -17 -1 -33 1 -35 6 -3 4 4 6 15 4 11 -2 18 0 16 4 -3 4 1 8
9 8 8 0 11 -5 8 -10 -3 -6 -1 -7 5 -3 6 4 8 14 5 22 -5 13 -7 13 -14 2 -7 -10
-9 -10 -9 1 0 11 -4 10 -16 -5 -13 -16 -15 -16 -10 -1 7 21 -2 23 -10 2z"/>
<path d="M2945 1389 c2 -29 15 -35 16 -8 1 20 2 18 10 -10 6 -18 13 -30 16
-27 3 3 12 1 19 -5 10 -9 15 -7 20 5 3 9 10 14 15 11 4 -3 6 4 4 16 -5 27 -15
38 -16 18 0 -8 -4 -6 -8 5 -7 19 -8 19 -13 -2 -4 -12 -3 -20 1 -18 4 3 8 -5 8
-17 2 -20 1 -20 -8 -4 -6 9 -14 15 -18 13 -4 -3 -8 5 -8 17 -2 18 0 19 8 7 9
-13 10 -13 7 0 -3 8 -16 15 -29 15 -19 1 -25 -3 -24 -16z"/>
<path d="M4040 1345 c-25 -25 -55 -48 -67 -52 -28 -6 -30 -23 -4 -23 18 0 131
95 131 111 0 18 -17 8 -60 -36z"/>
<path d="M4106 1342 c-3 -5 1 -9 9 -9 8 0 12 4 9 9 -3 4 -7 8 -9 8 -2 0 -6 -4
-9 -8z"/>
<path d="M3096 1321 c-3 -5 2 -15 12 -22 15 -12 16 -12 5 2 -7 9 -10 19 -6 22
3 4 4 7 0 7 -3 0 -8 -4 -11 -9z"/>
<path d="M3920 1279 c0 -5 5 -7 10 -4 6 3 10 8 10 11 0 2 -4 4 -10 4 -5 0 -10
-5 -10 -11z"/>
<path d="M2995 1260 c3 -5 8 -10 11 -10 2 0 4 5 4 10 0 6 -5 10 -11 10 -5 0
-7 -4 -4 -10z"/>
<path d="M3585 1240 c3 -5 8 -10 11 -10 2 0 4 5 4 10 0 6 -5 10 -11 10 -5 0
-7 -4 -4 -10z"/>
<path d="M2136 1410 c5 -8 10 -23 11 -34 3 -16 1 -17 -12 -6 -8 7 -12 17 -8
24 3 6 2 7 -3 3 -5 -5 -10 -13 -10 -18 -1 -5 -2 -10 -4 -11 -5 -8 -7 -39 -2
-33 4 4 7 11 7 16 0 5 4 10 9 12 5 1 11 -14 13 -33 2 -28 1 -31 -7 -15 -7 16
-9 17 -9 3 -1 -9 -5 -20 -11 -23 -6 -3 -7 1 -4 9 3 9 2 16 -3 16 -18 0 -23
-13 -10 -28 6 -8 11 -17 10 -19 -11 -14 1 -13 17 2 19 17 20 17 31 -8 7 -15
16 -24 21 -21 5 3 4 12 -3 20 -6 8 -8 14 -4 14 4 0 3 6 -3 13 -16 19 -19 62
-4 59 10 -2 11 2 3 15 -7 13 -5 23 7 38 14 16 14 17 1 8 -12 -10 -18 -10 -29
0 -10 10 -11 9 -4 -3z m-6 -114 c0 -2 -8 -10 -17 -17 -16 -13 -17 -12 -4 4 13
16 21 21 21 13z"/>
<path d="M2175 1390 c-3 -5 -2 -17 2 -25 7 -12 11 -11 22 8 13 21 13 21 -4 7
-17 -14 -18 -13 -12 3 7 18 2 23 -8 7z"/>
<path d="M2225 1341 c2 -11 -3 -22 -12 -25 -10 -4 -13 -2 -10 7 3 8 -1 14 -8
14 -7 0 -11 -6 -8 -14 4 -9 0 -11 -11 -7 -17 7 -22 -11 -6 -21 6 -4 8 -10 5
-14 -2 -5 5 -17 17 -27 20 -18 21 -18 15 -1 -10 26 1 41 19 26 8 -6 14 -10 15
-8 5 25 4 51 -3 55 -4 3 -6 9 -3 14 3 5 1 11 -4 15 -6 3 -8 -3 -6 -14z m11
-41 c0 -13 -4 -16 -10 -10 -6 6 -17 4 -30 -8 -12 -9 -18 -13 -14 -8 4 5 3 15
-3 22 -8 10 -6 12 8 9 11 -2 26 1 34 6 8 5 14 9 14 9 1 0 1 -9 1 -20z"/>
</g>
</svg>
